<?xml version="1.0" encoding="UTF-8"?>
<svg width="18px" height="16px" viewBox="0 0 18 16" version="1.1" xmlns="http://www.w3.org/2000/svg" xmlns:xlink="http://www.w3.org/1999/xlink">
    <!-- Generator: Sketch 64 (93537) - https://sketch.com -->
    <title>Group</title>
    <desc>Created with Sketch.</desc>
    <g id="Symbols" stroke="none" stroke-width="1" fill="none" fill-rule="evenodd">
        <g id="icon/download" fill="#2D76B5" fill-rule="nonzero">
            <g id="noun_Download_3465422" transform="translate(-0.000000, 0.000000)">
                <g id="Group">
                    <path d="M3.50619608,6.66980392 C3.40517647,6.89505882 3.44533333,7.15890196 3.60878431,7.34337255 L8.31466667,12.6563137 C8.55309804,12.9251765 9.01552941,12.9251765 9.25396078,12.6563137 L13.9598431,7.34337255 C14.1232941,7.15858824 14.163451,6.8947451 14.0624314,6.66980392 C13.961098,6.44486275 13.737098,6.29992157 13.4901961,6.29992157 L10.6666667,6.29992157 L10.6666667,0.632156863 C10.6666667,0.285803922 10.3855686,0.00470588235 10.0392157,0.00470588235 L7.52941176,0.00470588235 C7.18305882,0.00470588235 6.90196078,0.285803922 6.90196078,0.632156863 L6.90196078,6.29960784 L4.07843137,6.29960784 C3.83152941,6.29992157 3.60752941,6.44486275 3.50619608,6.66980392 Z" id="Path"></path>
                    <path d="M0.156862745,15.0538039 C0.156862745,15.5736471 0.578196078,15.9949804 1.09803922,15.9949804 L16.4705882,15.9949804 C16.9904314,15.9949804 17.4117647,15.5736471 17.4117647,15.0538039 C17.4117647,14.5339608 16.9904314,14.1126275 16.4705882,14.1126275 L1.09803922,14.1126275 C0.578196078,14.1126275 0.156862745,14.5339608 0.156862745,15.0538039 Z" id="Path"></path>
                </g>
            </g>
        </g>
    </g>
</svg>