<?xml version="1.0" encoding="UTF-8"?>
<svg width="13px" height="14px" viewBox="0 0 13 14" version="1.1" xmlns="http://www.w3.org/2000/svg" xmlns:xlink="http://www.w3.org/1999/xlink">
    <!-- Generator: Sketch 64 (93537) - https://sketch.com -->
    <title>noun_loading_190593</title>
    <desc>Created with Sketch.</desc>
    <g id="Symbols" stroke="none" stroke-width="1" fill="none" fill-rule="evenodd">
        <g id="icon/load" fill-rule="nonzero">
            <g id="noun_loading_190593">
                <g id="Group">
                    <path d="M12.1055258,8.05995876 C12.039134,8.11249485 11.9523918,8.14569072 11.844,8.14569072 C11.7536495,8.14569072 11.6796082,8.12129897 11.618701,8.08319588 C11.6136495,8.11653608 11.6036907,8.14958763 11.5914227,8.18220619 C11.5883918,8.20053608 11.5829072,8.21814433 11.5777113,8.23560825 C11.5752577,8.25061856 11.5719381,8.26476289 11.5680412,8.27905155 C11.1490515,10.6440412 9.08657732,12.4484536 6.60309278,12.4484536 C3.8176701,12.4484536 1.55154639,10.1823299 1.55154639,7.39690722 C1.55154639,4.61148454 3.8176701,2.34536082 6.60309278,2.34536082 C8.21958763,2.34536082 9.65812371,3.1108866 10.5829897,4.29626804 C10.9251959,3.95406186 11.2674021,3.61185567 11.6096082,3.26964948 C10.4184536,1.82519588 8.61750515,0.902061856 6.60309278,0.902061856 C3.02183505,0.902061856 0.108247423,3.81564948 0.108247423,7.39690722 C0.108247423,10.9781649 3.02183505,13.8917526 6.60309278,13.8917526 C9.83160825,13.8917526 12.5161443,11.5234433 13.0135052,8.43305155 C12.7049278,8.32725773 12.4091959,8.18841237 12.1055258,8.05995876 Z" id="Path" fill="#000000"></path>
                    <g transform="translate(7.360825, 3.319588)" id="Path">
                        <line x1="4.04123711" y1="0.721649485" x2="0.721649485" y2="0.721649485" fill="#000000"></line>
                        <path d="M4.04123711,1.44329897 L0.721649485,1.44329897 C0.323010309,1.44329897 0,1.12014433 0,0.721649485 C0,0.323154639 0.323010309,0 0.721649485,0 L4.04123711,0 C4.43987629,0 4.7628866,0.323154639 4.7628866,0.721649485 C4.7628866,1.12014433 4.43987629,1.44329897 4.04123711,1.44329897 Z" fill="#000000"></path>
                    </g>
                    <g transform="translate(10.680412, 0.000000)" id="Path">
                        <line x1="0.721649485" y1="4.04123711" x2="0.721649485" y2="0.721649485" fill="#000000"></line>
                        <path d="M0.721649485,4.7628866 C0.323010309,4.7628866 0,4.43973196 0,4.04123711 L0,0.721649485 C0,0.323154639 0.323010309,0 0.721649485,0 C1.12028866,0 1.44329897,0.323154639 1.44329897,0.721649485 L1.44329897,4.04123711 C1.44329897,4.43973196 1.12028866,4.7628866 0.721649485,4.7628866 Z" fill="#000000"></path>
                    </g>
                    <circle id="Oval" fill="#000000" cx="12.3039794" cy="8.29896907" r="1"></circle>
                </g>
            </g>
        </g>
    </g>
</svg>
