<svg xmlns="http://www.w3.org/2000/svg" xmlns:xlink="http://www.w3.org/1999/xlink" version="1.1" x="0px" y="0px" viewBox="0 0 10 12.5" enable-background="new 0 0 10 10" xml:space="preserve"><path d="M9.688,4.678C9.619,3.954,9.371,3.211,8.986,2.586c-0.396-0.66-0.98-1.225-1.682-1.631c-0.08-0.052-0.162-0.091-0.242-0.129  L7.027,0.809C6.998,0.795,6.969,0.781,6.939,0.767c-0.061-0.03-0.121-0.059-0.191-0.086c-0.051-0.018-0.1-0.037-0.15-0.056  C6.463,0.574,6.324,0.522,6.186,0.492C5.758,0.365,5.32,0.335,4.981,0.324C4.166,0.326,3.349,0.535,2.682,0.912L2.584,0.97  C2.447,1.051,2.305,1.134,2.183,1.233c-0.025,0.02-0.052,0.038-0.077,0.057C2.053,1.329,2.001,1.367,1.949,1.413l-0.243,0.22  c-0.024,0.022-0.05,0.045-0.077,0.074L1.34,2.025l-0.179,0.24C1.11,2.333,1.056,2.405,1.016,2.478c-0.389,0.619-0.631,1.311-0.7,2  c-0.063,0.63,0.006,1.279,0.202,1.881l0.106,0.302c0.011,0.028,0.021,0.05,0.031,0.071l0.016,0.033  c0.021,0.043,0.04,0.084,0.06,0.127C0.767,6.972,0.803,7.05,0.847,7.131l0.199,0.332c0.045,0.067,0.093,0.131,0.14,0.193  C1.21,7.689,1.235,7.721,1.263,7.76C1.552,8.117,1.856,8.411,2.14,8.607C2.163,8.623,2.184,8.64,2.206,8.656  C2.25,8.689,2.294,8.723,2.338,8.748l0.339,0.203L3.05,9.13c0.073,0.034,0.161,0.005,0.198-0.068C3.285,8.988,3.256,8.9,3.184,8.863  L2.83,8.678L2.512,8.47C2.478,8.447,2.445,8.42,2.411,8.393c-0.022-0.02-0.046-0.037-0.071-0.058C2.087,8.146,1.82,7.867,1.57,7.533  C1.546,7.499,1.523,7.465,1.5,7.432c-0.041-0.06-0.082-0.119-0.117-0.176L1.209,6.941c-0.034-0.07-0.065-0.144-0.097-0.219  C1.095,6.678,1.076,6.634,1.058,6.594L1.044,6.559C1.037,6.543,1.029,6.525,1.026,6.516L0.937,6.228  C0.783,5.684,0.742,5.101,0.819,4.539C0.903,3.934,1.14,3.331,1.503,2.797c0.344-0.518,0.87-0.978,1.481-1.294  c0.558-0.288,1.18-0.434,1.85-0.434c0.044,0,0.088,0,0.124,0.001c0.306,0.023,0.663,0.062,1.012,0.181  c0.105,0.027,0.209,0.07,0.318,0.116C6.34,1.389,6.391,1.41,6.434,1.427C6.48,1.448,6.527,1.472,6.572,1.496  c0.029,0.016,0.059,0.031,0.084,0.045l0.035,0.017c0.063,0.033,0.121,0.063,0.178,0.104l0.213,0.14  c0.041,0.028,0.08,0.06,0.119,0.091C7.227,1.914,7.25,1.935,7.279,1.957c0.094,0.068,0.176,0.149,0.264,0.236  c0.031,0.031,0.063,0.063,0.1,0.096c0.031,0.028,0.059,0.064,0.09,0.102c0.021,0.025,0.041,0.05,0.057,0.068  C7.811,2.484,7.83,2.508,7.852,2.533C7.885,2.57,7.914,2.605,7.938,2.64c0.031,0.048,0.064,0.095,0.098,0.142  C8.096,2.868,8.152,2.95,8.195,3.04c0.301,0.534,0.471,1.109,0.506,1.71C8.73,5.268,8.645,5.807,8.453,6.309  C8.289,6.736,8.055,7.131,7.771,7.451C7.732,7.497,7.691,7.539,7.65,7.58C7.623,7.606,7.598,7.633,7.576,7.656  c-0.014,0.013-0.027,0.026-0.039,0.04C7.52,7.715,7.502,7.733,7.486,7.747L7.383,7.833C7.355,7.855,7.33,7.877,7.305,7.898  C7.268,7.932,7.23,7.963,7.197,7.987L7,8.122C6.928,8.176,6.857,8.213,6.791,8.248c-0.035,0.02-0.07,0.037-0.094,0.053  c-0.021,0.01-0.039,0.021-0.057,0.031C6.619,8.344,6.6,8.356,6.572,8.367L6.17,8.537C5.873,8.678,5.742,9.033,5.883,9.332  C5.98,9.541,6.193,9.677,6.424,9.677c0.088,0,0.174-0.019,0.254-0.057l0.373-0.175c0.035-0.016,0.08-0.041,0.125-0.068L7.238,9.34  c0.031-0.019,0.064-0.038,0.1-0.059c0.104-0.06,0.223-0.129,0.328-0.213l0.23-0.173c0.055-0.043,0.107-0.091,0.16-0.14  c0.025-0.023,0.051-0.047,0.08-0.072L8.262,8.57c0.027-0.027,0.055-0.059,0.082-0.089l0.043-0.046  C8.412,8.407,8.438,8.379,8.465,8.35C8.52,8.291,8.576,8.229,8.627,8.161c0.348-0.427,0.631-0.943,0.82-1.497  C9.666,6.021,9.748,5.334,9.688,4.678z" fill="#000000"/></svg>
