<?xml version="1.0" encoding="UTF-8"?>
<svg width="12px" height="15px" viewBox="0 0 12 15" version="1.1" xmlns="http://www.w3.org/2000/svg" xmlns:xlink="http://www.w3.org/1999/xlink">
    <!-- Generator: Sketch 64 (93537) - https://sketch.com -->
    <title>Group 5</title>
    <desc>Created with Sketch.</desc>
    <g id="Symbols" stroke="none" stroke-width="1" fill="none" fill-rule="evenodd">
        <g id="icon/doc" fill="#333333">
            <g id="Group-5">
                <path d="M0.3,0 L6.2625,0 C6.42818542,4.11038738e-16 6.5625,0.134314575 6.5625,0.3 L6.5625,5.325 C6.5625,5.49068542 6.69681458,5.625 6.8625,5.625 L10.95,5.625 C11.1156854,5.625 11.25,5.75931458 11.25,5.925 L11.25,14.7 C11.25,14.8656854 11.1156854,15 10.95,15 L0.3,15 C0.134314575,15 -1.46242841e-16,14.8656854 0,14.7 L0,0.3 C-2.02906125e-17,0.134314575 0.134314575,7.52080885e-16 0.3,0 Z" id="Rectangle"></path>
                <path d="M10.6258125,4.6875 L7.8,4.6875 C7.63431458,4.6875 7.5,4.55318542 7.5,4.3875 L7.5,0.855234318 C7.5,0.689548893 7.63431458,0.555234318 7.8,0.555234318 C7.89113512,0.555234318 7.97732899,0.596661234 8.03426064,0.667825804 L10.8600732,4.20009149 C10.9635761,4.32947007 10.9425996,4.51825778 10.8132211,4.62176064 C10.7600271,4.66431577 10.693934,4.6875 10.6258125,4.6875 Z" id="Path-2"></path>
            </g>
        </g>
    </g>
</svg>