<?xml version="1.0" encoding="UTF-8"?>
<svg width="14px" height="14px" viewBox="0 0 14 14" version="1.1" xmlns="http://www.w3.org/2000/svg" xmlns:xlink="http://www.w3.org/1999/xlink">
    <!-- Generator: Sketch 64 (93537) - https://sketch.com -->
    <title>noun_update_3235036</title>
    <desc>Created with Sketch.</desc>
    <g id="Symbols" stroke="none" stroke-width="1" fill="none" fill-rule="evenodd">
        <g id="icon/update" fill="#000000" fill-rule="nonzero">
            <g id="noun_update_3235036">
                <g id="Group">
                    <path d="M2.51788793,3.57693966 C2.54051724,3.54676724 2.56314655,3.51659483 2.58577586,3.48793103 C2.55107759,3.53318966 2.51487069,3.5799569 2.48017241,3.62521552 C2.81357759,3.19375 3.2012931,2.8075431 3.63275862,2.47413793 C3.5875,2.50883621 3.54073276,2.5450431 3.49547414,2.57974138 C3.92543103,2.25086207 4.39461207,1.9762931 4.8924569,1.76508621 C4.83814655,1.78771552 4.78383621,1.81034483 4.73103448,1.83297414 C5.2424569,1.61875 5.77801724,1.47241379 6.32715517,1.39698276 C6.26681034,1.40452586 6.20646552,1.41357759 6.14612069,1.42112069 C6.71487069,1.34568966 7.29116379,1.34568966 7.85840517,1.42112069 C7.79806034,1.41357759 7.73771552,1.40452586 7.67737069,1.39698276 C8.22198276,1.47241379 8.75452586,1.61724138 9.26293103,1.8299569 C9.20862069,1.80732759 9.15431034,1.78469828 9.10150862,1.76206897 C9.60237069,1.97327586 10.074569,2.24935345 10.5075431,2.57974138 C10.4622845,2.5450431 10.4155172,2.50883621 10.3702586,2.47413793 C10.8032328,2.80905172 11.1924569,3.19676724 11.5258621,3.62974138 C11.4911638,3.58448276 11.4549569,3.53771552 11.4202586,3.4924569 C11.7521552,3.92392241 12.0267241,4.39612069 12.237931,4.89849138 C12.2153017,4.84418103 12.1926724,4.78987069 12.1700431,4.73706897 C12.3827586,5.24396552 12.5275862,5.77801724 12.6030172,6.32262931 C12.5954741,6.26228448 12.5864224,6.20193966 12.5788793,6.14159483 C12.6165948,6.42672414 12.6362069,6.71336207 12.6362069,7 C12.6362069,7.175 12.7116379,7.35603448 12.8353448,7.47974138 C12.9530172,7.59741379 13.1461207,7.68642241 13.3150862,7.67887931 C13.4900862,7.67133621 13.6726293,7.61400862 13.7948276,7.47974138 C13.9170259,7.34698276 13.9939655,7.18405172 13.9939655,7 C13.9924569,5.87909483 13.7193966,4.77478448 13.2079741,3.77909483 C12.9590517,3.29482759 12.6452586,2.84676724 12.29375,2.43340517 C11.94375,2.02155172 11.5394397,1.66551724 11.1064655,1.34418103 C10.7127155,1.05150862 10.2842672,0.805603448 9.83469828,0.610991379 C9.32478448,0.392241379 8.80431034,0.217241379 8.25517241,0.123706897 C7.0512931,-0.0829741379 5.79762931,-0.00452586207 4.64655172,0.417887931 C3.50905172,0.835775862 2.47262931,1.52823276 1.68965517,2.4575431 C1.57047414,2.59935345 1.45732759,2.74568966 1.34719828,2.89353448 C1.24913793,3.02478448 1.23706897,3.26616379 1.27931034,3.41702586 C1.32306034,3.57392241 1.44375,3.74590517 1.59159483,3.82284483 C1.74849138,3.90581897 1.94008621,3.94806034 2.11508621,3.89073276 C2.16939655,3.86810345 2.2237069,3.84547414 2.27650862,3.82284483 C2.37607759,3.76099138 2.4575431,3.67952586 2.51788793,3.57693966 L2.51788793,3.57693966 Z" id="Path"></path>
                    <path d="M4.37952586,2.65215517 C4.08232759,2.65215517 3.78362069,2.65215517 3.48642241,2.65215517 C3.0112069,2.65215517 2.53599138,2.65215517 2.06228448,2.65215517 C1.95366379,2.65215517 1.8450431,2.65215517 1.73491379,2.65215517 C1.9612069,2.87844828 2.1875,3.10474138 2.4137931,3.33103448 C2.4137931,3.03383621 2.4137931,2.73512931 2.4137931,2.43793103 C2.4137931,1.96271552 2.4137931,1.4875 2.4137931,1.0137931 C2.4137931,0.905172414 2.4137931,0.796551724 2.4137931,0.686422414 C2.4137931,0.512931034 2.33836207,0.32887931 2.21465517,0.206681034 C2.09698276,0.0890086207 1.90387931,-8.67361738e-19 1.73491379,0.00754310345 C1.55991379,0.0150862069 1.37737069,0.0724137931 1.25517241,0.206681034 C1.13297414,0.339439655 1.05603448,0.50237069 1.05603448,0.686422414 C1.05603448,0.98362069 1.05603448,1.28232759 1.05603448,1.57952586 C1.05603448,2.05474138 1.05603448,2.5299569 1.05603448,3.00366379 C1.05603448,3.11228448 1.05603448,3.22090517 1.05603448,3.33103448 C1.05603448,3.69762931 1.36681034,4.00991379 1.73491379,4.00991379 C2.03211207,4.00991379 2.33081897,4.00991379 2.62801724,4.00991379 C3.10323276,4.00991379 3.57844828,4.00991379 4.05215517,4.00991379 C4.16077586,4.00991379 4.26939655,4.00991379 4.37952586,4.00991379 C4.55301724,4.00991379 4.73706897,3.93448276 4.85926724,3.81077586 C4.97693966,3.69310345 5.06594828,3.5 5.05840517,3.33103448 C5.05086207,3.15603448 4.99353448,2.97349138 4.85926724,2.8512931 C4.72650862,2.72909483 4.56357759,2.65215517 4.37952586,2.65215517 L4.37952586,2.65215517 Z" id="Path"></path>
                    <path d="M11.4821121,10.4230603 C11.4594828,10.4532328 11.4368534,10.4834052 11.4142241,10.512069 C11.4489224,10.4668103 11.4851293,10.4200431 11.5198276,10.3747845 C11.1864224,10.80625 10.7987069,11.1924569 10.3672414,11.5258621 C10.4125,11.4911638 10.4592672,11.4549569 10.5045259,11.4202586 C10.074569,11.7491379 9.60538793,12.0237069 9.1075431,12.2349138 C9.16185345,12.2122845 9.21616379,12.1896552 9.26896552,12.1670259 C8.7575431,12.38125 8.22198276,12.5275862 7.67284483,12.6030172 C7.73318966,12.5954741 7.79353448,12.5864224 7.85387931,12.5788793 C7.28512931,12.6543103 6.70883621,12.6543103 6.14159483,12.5788793 C6.20193966,12.5864224 6.26228448,12.5954741 6.32262931,12.6030172 C5.77801724,12.5275862 5.24547414,12.3827586 4.73706897,12.1700431 C4.79137931,12.1926724 4.84568966,12.2153017 4.89849138,12.237931 C4.39762931,12.0267241 3.92543103,11.7506466 3.4924569,11.4202586 C3.53771552,11.4549569 3.58448276,11.4911638 3.62974138,11.5258621 C3.19827586,11.1909483 2.80905172,10.8017241 2.47413793,10.36875 C2.50883621,10.4140086 2.5450431,10.4607759 2.57974138,10.5060345 C2.24784483,10.074569 1.97327586,9.60237069 1.76206897,9.1 C1.78469828,9.15431034 1.80732759,9.20862069 1.8299569,9.26142241 C1.61724138,8.75452586 1.47241379,8.22047414 1.39698276,7.67586207 C1.40452586,7.7362069 1.41357759,7.79655172 1.42112069,7.85689655 C1.38340517,7.57176724 1.3637931,7.28512931 1.3637931,6.99849138 C1.3637931,6.82349138 1.28836207,6.6424569 1.16465517,6.51875 C1.04698276,6.40107759 0.85387931,6.31206897 0.684913793,6.31961207 C0.509913793,6.32715517 0.32737069,6.38448276 0.205172414,6.51875 C0.0829741379,6.65150862 0.00603448276,6.81443966 0.00603448276,6.99849138 C0.00754310345,8.11939655 0.280603448,9.2237069 0.792025862,10.2193966 C1.04094828,10.7036638 1.35474138,11.1517241 1.70625,11.5650862 C2.05625,11.9769397 2.46056034,12.3329741 2.89353448,12.6543103 C3.28728448,12.9469828 3.71573276,13.1928879 4.16530172,13.3875 C4.67521552,13.60625 5.19568966,13.78125 5.74482759,13.8747845 C6.9487069,14.0814655 8.20237069,14.0030172 9.35344828,13.5806034 C10.4909483,13.1627155 11.5273707,12.4702586 12.3103448,11.5409483 C12.4295259,11.3991379 12.5426724,11.2528017 12.6528017,11.1049569 C12.7508621,10.9737069 12.762931,10.7323276 12.7206897,10.5814655 C12.6769397,10.424569 12.55625,10.2525862 12.4084052,10.1756466 C12.2515086,10.0926724 12.0599138,10.050431 11.8849138,10.1077586 C11.8306034,10.1303879 11.7762931,10.1530172 11.7234914,10.1756466 C11.6239224,10.2390086 11.5424569,10.3204741 11.4821121,10.4230603 L11.4821121,10.4230603 Z" id="Path"></path>
                    <path d="M9.62047414,11.3478448 C9.91767241,11.3478448 10.2163793,11.3478448 10.5135776,11.3478448 C10.9887931,11.3478448 11.4640086,11.3478448 11.9377155,11.3478448 C12.0463362,11.3478448 12.1549569,11.3478448 12.2650862,11.3478448 C12.0387931,11.1215517 11.8125,10.8952586 11.5862069,10.6689655 C11.5862069,10.9661638 11.5862069,11.2648707 11.5862069,11.562069 C11.5862069,12.0372845 11.5862069,12.5125 11.5862069,12.9862069 C11.5862069,13.0948276 11.5862069,13.2034483 11.5862069,13.3135776 C11.5862069,13.487069 11.6616379,13.6711207 11.7853448,13.793319 C11.9030172,13.9109914 12.0961207,14 12.2650862,13.9924569 C12.4400862,13.9849138 12.6226293,13.9275862 12.7448276,13.793319 C12.8670259,13.6605603 12.9439655,13.4976293 12.9439655,13.3135776 C12.9439655,13.0163793 12.9439655,12.7176724 12.9439655,12.4204741 C12.9439655,11.9452586 12.9439655,11.4700431 12.9439655,10.9963362 C12.9439655,10.8877155 12.9439655,10.7790948 12.9439655,10.6689655 C12.9439655,10.3023707 12.6331897,9.99008621 12.2650862,9.99008621 C11.9678879,9.99008621 11.669181,9.99008621 11.3719828,9.99008621 C10.8967672,9.99008621 10.4215517,9.99008621 9.94784483,9.99008621 C9.83922414,9.99008621 9.73060345,9.99008621 9.62047414,9.99008621 C9.44698276,9.99008621 9.26293103,10.0655172 9.14073276,10.1892241 C9.02306034,10.3068966 8.93405172,10.5 8.94159483,10.6689655 C8.94913793,10.8439655 9.00646552,11.0265086 9.14073276,11.1487069 C9.27349138,11.2709052 9.43642241,11.3478448 9.62047414,11.3478448 L9.62047414,11.3478448 Z" id="Path"></path>
                </g>
            </g>
        </g>
    </g>
</svg>
